<svg xmlns="http://www.w3.org/2000/svg" viewBox="0 0 50 7.31">
  <path d="M1.06 1.53h2.1l-.1.68h.02q.26-.39.52-.53t.73-.15h1.03L5.02 2.9q-.18-.13-.3-.16-.19-.05-.62-.05-.61 0-.84.14t-.33.58L2.6 4.77q-.09.34-.09.56 0 .17.08.4H.01q.18-.21.25-.35.12-.23.22-.62l.57-2.27q.09-.34.09-.56 0-.17-.08-.4M7.4 3.26h1.48l.14-.57.02-.16q0-.18-.25-.18h-.86q-.3 0-.39.34zm3.33.82H7.2l-.1.4-.02.16q0 .27.4.27h2.03q.56 0 1-.18l-.41 1H5.9q-.98 0-.98-.7 0-.23.08-.57l.42-1.66q.17-.68.5-.97.34-.3 1.03-.3h3.2q.99 0 .99.7 0 .23-.08.57zM12.26.01h2.34l-.48 1.93h.02l.27-.28q.15-.13.34-.13h1.64q1.1 0 1.1.95 0 .25-.07.58L17 4.76q-.1.35-.1.57 0 .17.09.4h-2.57q.17-.22.25-.35.12-.23.22-.62l.52-2.06.02-.15q0-.2-.3-.2h-.76q-.35 0-.43.35l-.52 2.06q-.09.35-.09.57 0 .17.08.4h-2.57q.18-.22.25-.35.13-.23.22-.62l.95-3.78q.08-.35.08-.57 0-.17-.07-.4m11.17 5.72h-2.18l.05-.44h-.02q-.3.44-.65.44h-1.71q-1.1 0-1.1-.96 0-.25.08-.57l.42-1.7q.09-.35.09-.57 0-.17-.08-.4h2.34l-.75 3.03q-.03.09-.03.15 0 .2.29.2h.77q.35 0 .44-.35l.5-2.07q.1-.34.1-.56 0-.17-.08-.4h2.34l-.8 3.23q-.1.35-.1.57 0 .17.08.4m.83 0 .38-1.5h2.1l-.37 1.5zm6.03-3.06-.48 1.91-.01.14q0 .19.23.19h.84q.3 0 .37-.33l.48-1.9.02-.14q0-.19-.24-.19h-.84q-.3 0-.37.32m-.94 3.06h-2.11q.26-.31.38-.79L28.66.8q.12-.48.02-.79h2.29l-.49 1.93h.02q.23-.41.65-.41h1.65q1.06 0 1.06.85 0 .2-.06.45l-.4 1.6q-.33 1.3-1.65 1.3h-1.78q-.25 0-.37-.45zm4.76-.97.95-3.79q.08-.34.08-.56 0-.17-.07-.4h2.34l-1.19 4.75q-.09.35-.09.57 0 .17.08.4h-2.57q.18-.22.25-.35.12-.23.22-.62m5.54-2.07-.47 1.88-.02.16q0 .18.24.18h.88q.32 0 .4-.34l.47-1.88.02-.15q0-.19-.26-.19h-.87q-.3 0-.39.34m3.58.1-.42 1.67q-.17.68-.49.97-.35.3-1.03.3H38q-.98 0-.98-.7 0-.23.08-.57l.42-1.66q.17-.68.5-.98.35-.3 1.03-.3h3.3q.97 0 .97.72 0 .22-.08.56m3.35 3.07.14-.56h-.02q-.23.42-.65.42h-1.65q-1.07 0-1.07-.85 0-.2.07-.45l.4-1.6q.32-1.3 1.64-1.3h1.66q.3 0 .42.1.13.1.14.35h.02l.21-.45h2.11l-.23.35q-.16.3-.28.77l-.77 3.08q-.22.88-.63 1.23-.41.36-1.17.36h-3.88l.11-1.05q.47.23.92.23h1.82q.33 0 .45-.13.14-.11.24-.5m.32-1.3.47-1.88.02-.16q0-.18-.24-.18h-.82q-.3 0-.39.34l-.47 1.88-.02.16q0 .18.24.18h.82q.3 0 .39-.34" aria-label="rehu.blog" style="font-style:oblique;font-size:8.93655px;font-family:Serpentine;-inkscape-font-specification:&quot;Serpentine Oblique&quot;;stroke-width:.20945" transform="translate(-.01 -.01)"/>
</svg>
